<?xml version="1.0" encoding="UTF-8"?>
<!DOCTYPE svg PUBLIC "-//W3C//DTD SVG 1.1//EN" "http://www.w3.org/Graphics/SVG/1.1/DTD/svg11.dtd">
<!-- Creator: CorelDRAW X7 -->
<svg xmlns="http://www.w3.org/2000/svg" xml:space="preserve" width="53.485mm" height="23.1177mm" version="1.1" style="shape-rendering:geometricPrecision; text-rendering:geometricPrecision; image-rendering:optimizeQuality; fill-rule:evenodd; clip-rule:evenodd"
viewBox="0 0 16386 7083"
 xmlns:xlink="http://www.w3.org/1999/xlink">
 <defs>
  <style type="text/css">
   <![CDATA[
    .fil0 {fill:black}
    .fil1 {fill:black;fill-rule:nonzero}
    .fil2 {fill:red;fill-rule:nonzero}
   ]]>
  </style>
 </defs>
 <g id="Capa_x0020_1">
  <metadata id="CorelCorpID_0Corel-Layer"/>
  <g id="_509954496">
   <path class="fil0" d="M9762 4360c-209,7 -390,5 -670,-66 -235,-59 -655,-169 -879,-259 -11,-379 -24,-1236 -523,-1436 396,416 320,941 311,1621 126,47 549,181 923,277 366,93 570,106 857,81 260,-22 1685,-97 1854,-179 95,-46 77,-90 173,-112 193,-41 474,-99 725,-159 175,-41 379,-100 497,-122 195,-50 113,65 308,-34 68,-35 230,-140 319,-226 110,-107 48,-93 -20,-146 116,-202 114,-468 114,-530 137,-37 1757,195 2635,357 -334,-113 -1591,-489 -2613,-648 -6,-228 51,-255 -128,-418 -242,-221 -771,-563 -898,-637 -541,-314 -975,-471 -1552,-533 -199,-22 -310,12 -471,-135 12,-43 121,-158 68,-255 -26,-48 -224,-99 -268,-40 -19,25 2,90 -31,137 -277,-170 -829,-581 -1473,-695 666,220 1111,546 1650,937 236,171 263,93 522,141 417,78 847,252 1204,433 84,43 27,75 123,176 134,139 486,315 661,371 -89,-65 -387,-212 -411,-286 89,-17 133,21 218,76 180,116 345,221 504,355 169,143 146,127 142,346 -2,80 -12,210 -25,336 -32,320 -4,256 -187,502 64,37 117,61 10,118 -462,245 -1381,464 -1905,510 -611,54 -1144,121 -1764,142zm-5241 -3193c-3,-260 83,-188 133,-270 -32,-53 -269,-123 -344,16 -76,138 90,248 211,254zm5158 1414c-58,-52 -426,-45 -515,-191 10,-49 38,-37 33,-115 -3,-56 -30,-68 -33,-110 166,12 826,397 850,400 -87,-97 -196,-159 -320,-241 -146,-96 -233,-129 -363,-203 -151,-86 -426,-229 -613,-215 -55,4 -201,22 -244,37 -47,16 -197,36 -201,77 -3,30 116,107 149,128 104,69 240,160 354,210 242,107 574,242 903,223zm-2650 122c1024,-191 762,2406 -129,1719 10,58 288,379 611,109 368,-308 407,-1070 245,-1488 -145,-371 -443,-500 -727,-340z"/>
   <path class="fil0" d="M0 3282c764,-129 2331,-475 3460,-562 -30,-80 -38,-179 -41,-285 -1000,79 -2701,580 -3419,847z"/>
   <path class="fil0" d="M12060 3745c-11,202 -121,242 -221,341 65,34 1183,-226 1315,-299 -1,-3 -79,-47 -137,-102 -64,-60 -108,-130 -113,-135 -268,62 -581,147 -844,195z"/>
   <path class="fil0" d="M4677 667c-607,-129 -1237,105 -1237,836 60,-437 353,-590 614,-677 334,-111 732,-12 1117,210 -61,-142 -195,-236 -272,-280 527,-721 2199,-701 3011,-698 -1017,-113 -2437,-130 -3233,609zm-933 860c580,-25 559,934 351,1282 -91,154 -224,247 -404,199 68,99 313,129 485,-118 118,-169 172,-407 167,-643 -7,-297 -117,-855 -599,-720zm2871 9c36,44 202,1 265,14 761,110 1439,196 1955,294 446,84 1202,320 1523,641 -61,-435 -1343,-759 -1704,-820 -428,-73 -761,-133 -1168,-185 119,-50 1750,-133 2036,-152 102,-6 511,-31 681,-51 -200,-10 -723,17 -840,19 -781,9 -1569,78 -2349,72 -110,-1 -103,-71 -135,-75 -39,-195 -189,-725 -269,-864 -86,-148 -176,-185 -382,-182 -76,1 -286,25 -460,103 234,-27 558,-28 686,207 38,71 201,696 181,730 -34,18 -45,2 -80,-10 -16,-95 10,-194 -88,-268 -140,-105 -432,13 -517,96 -106,104 -27,202 91,235 91,25 185,20 277,23 75,2 18,11 74,37 20,60 141,139 223,136zm-205 1884c-308,-44 -563,-79 -841,-126 137,64 877,397 1053,444 -37,-229 -95,-509 -38,-900 82,-561 365,-726 416,-785 -651,268 -614,1007 -590,1367z"/>
   <polygon class="fil0" points="12901,3391 12908,2937 12051,3127 12055,3571 "/>
   <path class="fil0" d="M12184 2560l153 -13c-332,-274 -1736,-982 -2314,-1139l-140 11c697,255 1722,725 2301,1141z"/>
   <path class="fil0" d="M11949 2589l153 -13c-332,-274 -1735,-982 -2314,-1139l-140 11c697,255 1723,725 2301,1141z"/>
   <path class="fil0" d="M10246 4088c94,0 1269,19 1039,-220 -234,-242 -920,-546 -1277,-535 -394,12 -549,489 -292,673 149,107 354,82 530,82zm-19 -570c232,-70 758,169 952,332 293,247 -922,187 -988,168 -267,-78 -205,-428 36,-500z"/>
   <path class="fil0" d="M13424 2900c-55,78 -106,198 -133,248 -23,40 -184,392 -92,411 73,15 255,-213 286,-260 77,-116 75,-217 67,-353 -8,-125 -43,-165 -128,-46zm-220 622c-8,-90 78,-254 147,-330 91,-101 87,40 69,101 -35,114 -147,233 -216,229z"/>
   <path class="fil0" d="M12419 2531l152 -13c-332,-274 -1735,-982 -2313,-1138l-141 10c698,255 1723,725 2302,1141z"/>
   <g>
    <path class="fil1" d="M727 6484c62,5 128,9 196,13 68,3 129,5 185,5 71,0 129,-3 173,-9 45,-6 81,-17 110,-33 29,-17 53,-40 72,-71 19,-30 38,-70 57,-119l380 -997 1138 0 -542 1401c-34,85 -84,155 -153,208 -68,53 -147,95 -238,124 -91,30 -190,50 -298,61 -108,10 -218,16 -330,16 -45,0 -108,-2 -188,-5 -80,-4 -166,-8 -257,-14 -91,-6 -180,-14 -269,-25 -88,-10 -165,-23 -230,-38l194 -517zm4054 -682c-43,0 -85,1 -125,4 -41,2 -80,9 -119,21 -38,11 -74,29 -109,53 -35,24 -68,56 -99,97 -24,31 -46,66 -68,105 -22,38 -41,77 -57,115 -17,39 -30,76 -40,110 -9,34 -14,62 -14,84 0,46 10,83 30,112 21,28 46,51 77,67 32,17 67,28 106,35 40,6 77,10 113,10 65,0 121,-3 169,-8 48,-5 90,-13 127,-25 37,-13 70,-30 99,-51 29,-21 56,-49 82,-84 10,-11 24,-31 43,-60 20,-29 39,-63 60,-102 20,-40 37,-83 52,-131 14,-47 21,-96 21,-145 0,-64 -27,-114 -80,-151 -54,-37 -143,-56 -268,-56zm-1772 714c0,-64 9,-134 27,-210 18,-77 44,-155 79,-237 34,-81 77,-161 127,-241 50,-80 108,-155 172,-225 77,-84 167,-151 271,-202 104,-51 220,-90 348,-116 128,-26 266,-43 413,-51 147,-9 302,-13 464,-13 163,0 327,4 492,11 165,8 314,30 448,67 134,37 243,93 327,168 84,76 125,183 125,320 0,64 -9,137 -28,217 -19,81 -48,164 -85,250 -37,86 -82,173 -136,260 -54,87 -115,167 -185,241 -69,77 -161,138 -274,181 -114,44 -238,76 -371,97 -134,22 -273,35 -415,41 -142,6 -278,9 -407,9 -199,0 -383,-4 -553,-12 -169,-7 -316,-29 -441,-66 -124,-37 -222,-93 -292,-169 -71,-75 -106,-182 -106,-320z"/>
    <path class="fil2" d="M8738 6994c-122,18 -243,33 -364,44 -120,12 -235,21 -344,27 -109,7 -209,11 -300,14 -91,2 -166,4 -226,4 -193,0 -361,-8 -502,-23 -141,-14 -258,-41 -350,-80 -92,-38 -160,-90 -204,-156 -45,-66 -67,-149 -67,-251 0,-64 12,-146 36,-246 24,-100 59,-204 106,-311 47,-106 102,-209 167,-307 64,-99 139,-178 222,-239 74,-53 158,-95 250,-128 92,-33 189,-58 290,-76 102,-19 206,-30 312,-36 107,-6 210,-9 311,-9 222,0 442,9 660,27 218,18 435,43 653,74l-226 581c-113,-11 -218,-20 -316,-26 -98,-5 -200,-8 -305,-8 -160,0 -310,8 -448,24 -139,17 -256,55 -352,116 -48,31 -91,76 -129,133 -38,57 -57,124 -57,199 0,87 44,147 134,179 90,32 231,48 425,48 139,0 276,-9 411,-26 135,-17 271,-34 407,-50l-194 502zm2440 -1275l-7 0 -567 632 574 0 0 -632zm-814 -446l1919 0 0 1758 -1105 0 0 -256 -904 0 -222 256 -1227 0 1539 -1758zm3534 857l491 0c62,0 116,-8 162,-22 45,-15 82,-34 111,-57 28,-23 50,-49 64,-78 15,-28 22,-57 22,-85 0,-42 -20,-73 -61,-93 -41,-20 -99,-30 -176,-30l-477 0 -136 365zm-754 -857l2117 0c122,0 221,9 298,26 76,17 137,42 181,76 44,34 74,75 90,123 15,49 23,104 23,166 0,112 -21,208 -63,288 -42,81 -100,148 -174,201 -74,53 -161,93 -262,118 -100,26 -208,38 -323,38l-193 0 742 722 -1281 0 -531 -611 -229 611 -1094 0 699 -1758z"/>
   </g>
  </g>
 </g>
</svg>
